<mxfile host="app.diagrams.net" modified="2023-10-05T03:15:16.662Z" agent="Mozilla/5.0 (Windows NT 10.0; Win64; x64) AppleWebKit/537.36 (KHTML, like Gecko) Chrome/117.0.0.0 Safari/537.36" etag="dd15N21YZlMUFh1awBjU" version="22.0.2" type="github">
  <diagram name="Page-1" id="t-oRQWEnyfiSowE_yFUV">
    <mxGraphModel dx="802" dy="645" grid="1" gridSize="10" guides="1" tooltips="1" connect="1" arrows="1" fold="1" page="1" pageScale="1" pageWidth="827" pageHeight="1169" math="0" shadow="0">
      <root>
        <mxCell id="0" />
        <mxCell id="1" parent="0" />
        <mxCell id="8djH0RRrGKkSoVrjNzSS-5" style="edgeStyle=orthogonalEdgeStyle;rounded=0;orthogonalLoop=1;jettySize=auto;html=1;exitX=0.5;exitY=1;exitDx=0;exitDy=0;" edge="1" parent="1" source="8djH0RRrGKkSoVrjNzSS-1" target="8djH0RRrGKkSoVrjNzSS-2">
          <mxGeometry relative="1" as="geometry">
            <Array as="points">
              <mxPoint x="400" y="250" />
              <mxPoint x="160" y="250" />
            </Array>
          </mxGeometry>
        </mxCell>
        <mxCell id="8djH0RRrGKkSoVrjNzSS-8" style="edgeStyle=orthogonalEdgeStyle;rounded=0;orthogonalLoop=1;jettySize=auto;html=1;exitX=0.5;exitY=1;exitDx=0;exitDy=0;" edge="1" parent="1" source="8djH0RRrGKkSoVrjNzSS-1" target="8djH0RRrGKkSoVrjNzSS-3">
          <mxGeometry relative="1" as="geometry" />
        </mxCell>
        <mxCell id="8djH0RRrGKkSoVrjNzSS-1" value="Compare Price&lt;br&gt;" style="rounded=1;whiteSpace=wrap;html=1;" vertex="1" parent="1">
          <mxGeometry x="340" y="180" width="120" height="40" as="geometry" />
        </mxCell>
        <mxCell id="8djH0RRrGKkSoVrjNzSS-2" value="backend" style="rounded=0;whiteSpace=wrap;html=1;" vertex="1" parent="1">
          <mxGeometry x="90" y="280" width="120" height="60" as="geometry" />
        </mxCell>
        <mxCell id="8djH0RRrGKkSoVrjNzSS-3" value="frontend" style="rounded=0;whiteSpace=wrap;html=1;" vertex="1" parent="1">
          <mxGeometry x="640" y="280" width="120" height="60" as="geometry" />
        </mxCell>
        <mxCell id="8djH0RRrGKkSoVrjNzSS-9" value="&lt;span style=&quot;&quot;&gt;&lt;b&gt;Tools&amp;nbsp;&lt;br&gt;Express&lt;br&gt;Node&lt;br&gt;&lt;/b&gt;&lt;/span&gt;" style="whiteSpace=wrap;html=1;aspect=fixed;align=left;verticalAlign=top;" vertex="1" parent="1">
          <mxGeometry x="15" y="30" width="170" height="170" as="geometry" />
        </mxCell>
        <mxCell id="8djH0RRrGKkSoVrjNzSS-10" value="Controllers&lt;span style=&quot;white-space: pre;&quot;&gt;&#x9;&lt;/span&gt;" style="rounded=0;whiteSpace=wrap;html=1;" vertex="1" parent="1">
          <mxGeometry x="15" y="380" width="120" height="30" as="geometry" />
        </mxCell>
        <mxCell id="8djH0RRrGKkSoVrjNzSS-11" value="Models&lt;span style=&quot;white-space: pre;&quot;&gt;&#x9;&lt;/span&gt;" style="rounded=0;whiteSpace=wrap;html=1;" vertex="1" parent="1">
          <mxGeometry x="150" y="380" width="120" height="30" as="geometry" />
        </mxCell>
        <mxCell id="8djH0RRrGKkSoVrjNzSS-12" value="Routes" style="rounded=0;whiteSpace=wrap;html=1;" vertex="1" parent="1">
          <mxGeometry x="290" y="380" width="90" height="30" as="geometry" />
        </mxCell>
        <mxCell id="8djH0RRrGKkSoVrjNzSS-13" value="" style="rounded=0;whiteSpace=wrap;html=1;" vertex="1" parent="1">
          <mxGeometry x="590" y="390" width="120" height="60" as="geometry" />
        </mxCell>
        <mxCell id="8djH0RRrGKkSoVrjNzSS-23" value="" style="endArrow=classic;html=1;rounded=0;" edge="1" parent="1" target="8djH0RRrGKkSoVrjNzSS-10">
          <mxGeometry width="50" height="50" relative="1" as="geometry">
            <mxPoint x="160" y="340" as="sourcePoint" />
            <mxPoint x="210" y="290" as="targetPoint" />
          </mxGeometry>
        </mxCell>
        <mxCell id="8djH0RRrGKkSoVrjNzSS-24" value="" style="endArrow=classic;html=1;rounded=0;exitX=0.648;exitY=1.021;exitDx=0;exitDy=0;exitPerimeter=0;" edge="1" parent="1" source="8djH0RRrGKkSoVrjNzSS-2">
          <mxGeometry width="50" height="50" relative="1" as="geometry">
            <mxPoint x="310" y="540" as="sourcePoint" />
            <mxPoint x="220" y="380" as="targetPoint" />
          </mxGeometry>
        </mxCell>
        <mxCell id="8djH0RRrGKkSoVrjNzSS-25" value="" style="endArrow=classic;html=1;rounded=0;exitX=0.81;exitY=1.012;exitDx=0;exitDy=0;exitPerimeter=0;entryX=0.75;entryY=0;entryDx=0;entryDy=0;" edge="1" parent="1" source="8djH0RRrGKkSoVrjNzSS-2" target="8djH0RRrGKkSoVrjNzSS-12">
          <mxGeometry width="50" height="50" relative="1" as="geometry">
            <mxPoint x="310" y="540" as="sourcePoint" />
            <mxPoint x="380" y="380" as="targetPoint" />
          </mxGeometry>
        </mxCell>
      </root>
    </mxGraphModel>
  </diagram>
</mxfile>
